<svg data-v-423bf9ae="" xmlns="http://www.w3.org/2000/svg" viewBox="0 0 309.8181574377489 60" class="font"><!----><!----><!----><g data-v-423bf9ae="" id="4fc45780-7977-4cb4-aa66-09bde6e9fb7d" fill="black" transform="matrix(6.060605710312484,0,0,6.060605710312484,-2.6060571029611594,-23.939392129470775)"><path d="M0.43 12.10C1.19 13.08 2.56 13.85 4.49 13.85C6.69 13.85 8.37 12.85 8.37 10.89C8.37 9.52 7.55 8.89 6.62 8.53C5.54 8.11 4.28 8.04 3.39 7.69C2.90 7.49 2.46 7.20 2.46 6.58C2.46 5.77 3.25 5.24 4.51 5.24C5.74 5.24 6.58 5.74 7.14 6.37L8.13 5.49C7.56 4.75 6.43 3.95 4.56 3.95C2.35 3.95 1.09 5.07 1.09 6.64C1.09 7.76 1.72 8.37 2.74 8.78C3.79 9.20 5.03 9.30 5.94 9.63C6.55 9.86 6.99 10.18 6.99 10.91C6.99 11.98 6.02 12.59 4.58 12.59C3.19 12.59 2.17 12.03 1.50 11.23ZM10.02 4.05L10.02 13.73L11.45 13.73L11.45 10.12L14.06 10.12C16.03 10.12 17.33 9.10 17.33 7.08C17.33 5.08 16.03 4.05 14.06 4.05ZM11.45 5.35L14.07 5.35C15.22 5.35 15.99 5.92 15.99 7.10C15.99 8.29 15.22 8.86 14.07 8.86L11.45 8.86ZM20.72 4.05L17.04 13.73L18.55 13.73L19.31 11.65L23.69 11.65L24.46 13.73L25.97 13.73L22.25 4.05ZM21.48 5.68L23.21 10.37L19.77 10.37ZM27.31 4.05L27.31 13.73L28.74 13.73L28.74 10.01L31.05 10.01L33.38 13.73L35 13.73L32.51 9.86C33.75 9.51 34.54 8.57 34.54 7.03C34.54 5.04 33.24 4.05 31.28 4.05ZM28.74 5.35L31.30 5.35C32.42 5.35 33.18 5.89 33.18 7.06C33.18 8.23 32.42 8.78 31.30 8.78L28.74 8.78ZM41.90 4.05L37.88 9.04L37.88 4.05L36.46 4.05L36.46 13.73L37.88 13.73L37.88 10.93L39.49 8.96L42.41 13.73L44.00 13.73L40.39 7.85L43.48 4.05ZM45.33 4.05L45.33 13.73L51.55 13.73L51.55 12.40L46.76 12.40L46.76 9.42L50.25 9.42L50.25 8.13L46.76 8.13L46.76 5.38L51.45 5.38L51.45 4.05Z"></path></g><!----><!----></svg>