<svg data-v-423bf9ae="" xmlns="http://www.w3.org/2000/svg" viewBox="0 0 389 96" class="iconLeft"><!----><!----><!----><g data-v-423bf9ae="" id="fc645dd8-3290-4936-8962-97a397256ae4" fill="white" transform="matrix(6.060605710312484,0,0,6.060605710312484,76.54639345856228,-6.4209461608428455)"><path d="M0.43 12.10C1.19 13.08 2.56 13.85 4.49 13.85C6.69 13.85 8.37 12.85 8.37 10.89C8.37 9.52 7.55 8.89 6.62 8.53C5.54 8.11 4.28 8.04 3.39 7.69C2.90 7.49 2.46 7.20 2.46 6.58C2.46 5.77 3.25 5.24 4.51 5.24C5.74 5.24 6.58 5.74 7.14 6.37L8.13 5.49C7.56 4.75 6.43 3.95 4.56 3.95C2.35 3.95 1.09 5.07 1.09 6.64C1.09 7.76 1.72 8.37 2.74 8.78C3.79 9.20 5.03 9.30 5.94 9.63C6.55 9.86 6.99 10.18 6.99 10.91C6.99 11.98 6.02 12.59 4.58 12.59C3.19 12.59 2.17 12.03 1.50 11.23ZM10.02 4.05L10.02 13.73L11.45 13.73L11.45 10.12L14.06 10.12C16.03 10.12 17.33 9.10 17.33 7.08C17.33 5.08 16.03 4.05 14.06 4.05ZM11.45 5.35L14.07 5.35C15.22 5.35 15.99 5.92 15.99 7.10C15.99 8.29 15.22 8.86 14.07 8.86L11.45 8.86ZM20.72 4.05L17.04 13.73L18.55 13.73L19.31 11.65L23.69 11.65L24.46 13.73L25.97 13.73L22.25 4.05ZM21.48 5.68L23.21 10.37L19.77 10.37ZM27.31 4.05L27.31 13.73L28.74 13.73L28.74 10.01L31.05 10.01L33.38 13.73L35 13.73L32.51 9.86C33.75 9.51 34.54 8.57 34.54 7.03C34.54 5.04 33.24 4.05 31.28 4.05ZM28.74 5.35L31.30 5.35C32.42 5.35 33.18 5.89 33.18 7.06C33.18 8.23 32.42 8.78 31.30 8.78L28.74 8.78ZM41.90 4.05L37.88 9.04L37.88 4.05L36.46 4.05L36.46 13.73L37.88 13.73L37.88 10.93L39.49 8.96L42.41 13.73L44.00 13.73L40.39 7.85L43.48 4.05ZM45.33 4.05L45.33 13.73L51.55 13.73L51.55 12.40L46.76 12.40L46.76 9.42L50.25 9.42L50.25 8.13L46.76 8.13L46.76 5.38L51.45 5.38L51.45 4.05Z"></path></g><!----><g data-v-423bf9ae="" id="fc8e496c-edc5-4dc7-9ff9-83fc410fa049" transform="matrix(1.027601793077257,0,0,1.027601793077257,-21.164790239951493,-3.6255624516033578)" stroke="none" fill="white"><path d="M78.744 32.862A1.5 1.5 0 0 0 77.387 32h-16.3l7.751-26.191a1.5 1.5 0 0 0-2.617-1.355l-31.62 40.117A1.5 1.5 0 0 0 35.78 47h16.184l-9.276 26.136a1.501 1.501 0 0 0 2.568 1.46l33.285-40.138c.372-.448.451-1.07.203-1.596zM48.342 66.174l7.159-20.173A1.5 1.5 0 0 0 54.088 44H38.873l24.875-31.559-6.106 20.633A1.5 1.5 0 0 0 59.079 35h15.115L48.342 66.174zm-10.876-2.987l1.472 3.024a1.345 1.345 0 1 0 2.42-1.179l-1.472-3.024a1.347 1.347 0 0 0-2.42 1.179zm24.023 16l-3.179-1.095a1.347 1.347 0 0 0-.877 2.545l3.179 1.095a1.343 1.343 0 0 0 1.711-.834 1.345 1.345 0 0 0-.834-1.711zm-19.725.85a1.343 1.343 0 0 0-1.838.497l-3.37 5.87a1.345 1.345 0 1 0 2.335 1.341l3.37-5.87a1.345 1.345 0 0 0-.497-1.838zm-5.971 10.41a1.346 1.346 0 0 0-1.838.498l-1.978 3.446a1.347 1.347 0 0 0 2.335 1.34l1.978-3.446a1.345 1.345 0 0 0-.497-1.838zm-8.551-20.222l6.356 2.193a1.346 1.346 0 0 0 .878-2.546l-6.356-2.193a1.347 1.347 0 0 0-.878 2.546zm40.543 11.597l-1.965-.68a1.345 1.345 0 1 0-.879 2.545l1.965.68a1.346 1.346 0 0 0 .879-2.545zm.387-18.015l-13.6 6.624a1.346 1.346 0 1 0 1.178 2.421l13.6-6.624a1.346 1.346 0 1 0-1.178-2.421zm-30.751 12.51a1.346 1.346 0 0 0-1.8-.621L22.023 82.32a1.348 1.348 0 0 0 1.179 2.421L36.8 78.117a1.345 1.345 0 0 0 .621-1.8zM49.558 80.5a1.347 1.347 0 0 0-2.421 1.179l3.604 7.401a1.345 1.345 0 1 0 2.42-1.179L49.558 80.5zM35.51 59.171a1.345 1.345 0 0 0 1.8.621 1.348 1.348 0 0 0 .621-1.8l-2.944-6.042a1.346 1.346 0 0 0-2.421 1.179l2.944 6.042z"></path></g><!----></svg>